<svg width="169" height="25" viewBox="0 0 169 25" fill="none" xmlns="http://www.w3.org/2000/svg">
<path d="M8.511 21.264C8.031 21.264 7.591 21.144 7.191 20.904C6.807 20.648 6.615 20.192 6.615 19.536C6.615 19.296 6.647 19.048 6.711 18.792C6.775 18.52 6.847 18.256 6.927 18C6.655 18.272 6.319 18.592 5.919 18.96C5.519 19.312 5.079 19.656 4.599 19.992C4.135 20.328 3.663 20.608 3.183 20.832C2.719 21.04 2.279 21.144 1.863 21.144C1.351 21.144 0.935 20.96 0.615 20.592C0.391 20.352 0.279 20.04 0.279 19.656C0.279 19.192 0.439 18.68 0.759 18.12C1.095 17.544 1.543 16.976 2.103 16.416C2.679 15.856 3.327 15.344 4.047 14.88C4.783 14.416 5.543 14.048 6.327 13.776C7.175 13.472 7.927 13.32 8.583 13.32C9.735 13.32 10.311 13.816 10.311 14.808C10.311 14.872 10.303 14.952 10.287 15.048C10.287 15.128 10.279 15.216 10.263 15.312C10.183 15.632 10.063 15.848 9.903 15.96C9.887 15.976 9.847 16 9.783 16.032C9.719 16.048 9.663 16.024 9.615 15.96C9.567 15.88 9.559 15.768 9.591 15.624C9.639 15.448 9.663 15.296 9.663 15.168C9.663 14.72 9.415 14.496 8.919 14.496C8.647 14.496 8.303 14.552 7.887 14.664C7.471 14.776 7.023 14.928 6.543 15.12C6.079 15.296 5.631 15.488 5.199 15.696C4.783 15.904 4.431 16.112 4.143 16.32C3.407 16.848 2.759 17.432 2.199 18.072C1.655 18.696 1.343 19.24 1.263 19.704C1.247 19.752 1.239 19.8 1.239 19.848C1.239 19.896 1.239 19.936 1.239 19.968C1.239 20.208 1.287 20.368 1.383 20.448C1.495 20.528 1.623 20.568 1.767 20.568C2.039 20.568 2.351 20.488 2.703 20.328C3.055 20.152 3.383 19.96 3.687 19.752C4.007 19.544 4.231 19.384 4.359 19.272C4.855 18.84 5.415 18.376 6.039 17.88C6.679 17.368 7.247 16.896 7.743 16.464C7.839 16.416 7.959 16.392 8.103 16.392C8.359 16.392 8.559 16.448 8.703 16.56C8.767 16.608 8.799 16.704 8.799 16.848C8.799 17.04 8.727 17.28 8.583 17.568C8.327 18.112 8.111 18.6 7.935 19.032C7.759 19.448 7.671 19.792 7.671 20.064C7.671 20.464 7.895 20.664 8.343 20.664C8.695 20.664 9.263 20.528 10.047 20.256C10.863 19.952 11.687 19.528 12.519 18.984C13.367 18.44 14.127 17.888 14.799 17.328C14.879 17.248 14.959 17.184 15.039 17.136C15.119 17.088 15.191 17.032 15.255 16.968C15.335 16.92 15.407 16.864 15.471 16.8C15.551 16.736 15.639 16.672 15.735 16.608C15.831 16.576 15.895 16.56 15.927 16.56C16.039 16.56 16.095 16.616 16.095 16.728C16.095 16.824 16.055 16.912 15.975 16.992C15.879 17.12 15.647 17.352 15.279 17.688C14.911 18.024 14.455 18.4 13.911 18.816C13.383 19.232 12.799 19.632 12.159 20.016C11.535 20.4 10.903 20.704 10.263 20.928C10.023 21.008 9.743 21.08 9.423 21.144C9.119 21.224 8.815 21.264 8.511 21.264ZM17.7664 21.312C17.3984 21.312 17.0464 21.272 16.7104 21.192C16.3744 21.112 16.0704 20.992 15.7984 20.832C15.0944 20.384 14.7424 19.792 14.7424 19.056C14.7424 18.48 14.9344 17.896 15.3184 17.304C15.7184 16.696 16.2304 16.12 16.8544 15.576C17.4784 15.032 18.1344 14.584 18.8224 14.232C19.2384 14.008 19.6544 13.848 20.0704 13.752C20.4864 13.656 20.8544 13.608 21.1744 13.608C21.7344 13.608 22.1024 13.72 22.2784 13.944C22.4704 14.152 22.5664 14.4 22.5664 14.688C22.5664 14.992 22.4704 15.288 22.2784 15.576C22.0864 15.848 21.8144 16.12 21.4624 16.392C20.8544 16.888 20.0224 17.328 18.9664 17.712C17.9264 18.096 16.8544 18.368 15.7504 18.528C15.5904 18.848 15.5104 19.144 15.5104 19.416C15.5424 19.864 15.7744 20.184 16.2064 20.376C16.6544 20.552 17.1504 20.64 17.6944 20.64C17.8864 20.64 18.0704 20.632 18.2464 20.616C18.4224 20.6 18.5904 20.576 18.7504 20.544C19.5504 20.384 20.3664 20.096 21.1984 19.68C22.0464 19.264 22.8624 18.784 23.6464 18.24C24.4304 17.696 25.1344 17.152 25.7584 16.608C25.8544 16.576 25.9184 16.56 25.9504 16.56C26.0624 16.56 26.1184 16.616 26.1184 16.728C26.1184 16.808 26.0864 16.888 26.0224 16.968C25.9104 17.16 25.6784 17.408 25.3264 17.712C24.9904 18.016 24.6064 18.328 24.1744 18.648C23.7424 18.952 23.3184 19.248 22.9024 19.536C22.5024 19.808 22.1664 20.016 21.8944 20.16C21.3184 20.48 20.6624 20.752 19.9264 20.976C19.1904 21.2 18.4704 21.312 17.7664 21.312ZM16.1584 17.856C16.6704 17.728 17.2624 17.568 17.9344 17.376C18.6064 17.168 19.2464 16.928 19.8544 16.656C20.4624 16.368 20.9184 16.056 21.2224 15.72C21.3504 15.592 21.4384 15.464 21.4864 15.336C21.5344 15.192 21.5584 15.072 21.5584 14.976C21.5584 14.896 21.5264 14.824 21.4624 14.76C21.4144 14.696 21.2544 14.664 20.9824 14.664C20.5984 14.664 20.1024 14.824 19.4944 15.144C18.8864 15.448 18.2784 15.848 17.6704 16.344C17.0784 16.824 16.5744 17.328 16.1584 17.856ZM24.6028 21.96C24.4108 21.928 24.2268 21.856 24.0508 21.744C23.8908 21.648 23.8108 21.496 23.8108 21.288C23.8108 20.936 24.0028 20.568 24.3868 20.184C24.7708 19.784 25.2508 19.4 25.8268 19.032C26.4028 18.664 26.9708 18.36 27.5308 18.12C27.1788 17.752 26.8988 17.4 26.6908 17.064C26.4828 16.712 26.3788 16.36 26.3788 16.008C26.3788 15.528 26.6028 15.072 27.0508 14.64C27.4988 14.192 28.2108 13.752 29.1868 13.32C29.6508 13.112 30.0668 12.968 30.4348 12.888C30.8188 12.808 31.1548 12.768 31.4428 12.768C31.8108 12.768 32.1148 12.816 32.3548 12.912C32.5948 13.008 32.7708 13.12 32.8828 13.248C33.1388 13.552 33.2668 13.856 33.2668 14.16C33.2668 14.544 33.0988 14.872 32.7628 15.144C32.4268 15.416 32.1148 15.64 31.8268 15.816C31.7788 15.832 31.7308 15.856 31.6828 15.888C31.6348 15.92 31.5948 15.952 31.5628 15.984C31.4668 16.048 31.4108 16.088 31.3948 16.104C31.2508 16.232 31.1068 16.264 30.9628 16.2C30.8828 16.152 30.8428 16.088 30.8428 16.008C30.8428 15.928 30.8828 15.864 30.9628 15.816C31.1388 15.736 31.3388 15.584 31.5628 15.36C31.8028 15.12 32.0108 14.872 32.1868 14.616C32.3788 14.344 32.4748 14.112 32.4748 13.92C32.4748 13.824 32.4508 13.744 32.4028 13.68C32.3068 13.584 32.1148 13.536 31.8268 13.536C31.4748 13.536 31.0588 13.616 30.5788 13.776C30.1148 13.936 29.6588 14.152 29.2108 14.424C28.7788 14.68 28.4188 14.968 28.1308 15.288C27.8428 15.592 27.6988 15.896 27.6988 16.2C27.6988 16.472 27.7868 16.736 27.9628 16.992C28.1548 17.232 28.3628 17.464 28.5868 17.688C29.0348 17.496 29.5628 17.336 30.1708 17.208C30.7948 17.064 31.4348 16.952 32.0908 16.872C32.7628 16.792 33.4108 16.736 34.0348 16.704C34.6588 16.672 35.1948 16.656 35.6428 16.656C35.9148 16.656 36.1468 16.656 36.3388 16.656C36.5308 16.656 36.6828 16.672 36.7948 16.704C36.9388 16.736 37.0108 16.8 37.0108 16.896C37.0108 16.96 36.9788 17.016 36.9148 17.064C36.8668 17.112 36.8108 17.136 36.7468 17.136C36.6348 17.136 36.5148 17.128 36.3868 17.112C36.2748 17.096 36.1388 17.088 35.9788 17.088C35.4828 17.088 34.8908 17.128 34.2028 17.208C33.5148 17.272 32.8188 17.36 32.1148 17.472C31.4268 17.568 30.8028 17.68 30.2428 17.808C29.6828 17.936 29.2828 18.064 29.0428 18.192C29.3148 18.56 29.4508 18.952 29.4508 19.368C29.4508 20.104 29.0908 20.68 28.3708 21.096C27.8908 21.4 27.3468 21.624 26.7388 21.768C26.1468 21.928 25.6188 22.008 25.1548 22.008C25.0428 22.008 24.9388 22 24.8428 21.984C24.7628 21.984 24.6828 21.976 24.6028 21.96ZM25.1308 21.264C25.3068 21.264 25.6268 21.192 26.0908 21.048C26.5708 20.92 27.0108 20.728 27.4108 20.472C27.9548 20.136 28.2268 19.752 28.2268 19.32C28.2268 19.048 28.0988 18.76 27.8428 18.456C27.5388 18.568 27.1628 18.784 26.7148 19.104C26.2828 19.408 25.8988 19.728 25.5628 20.064C25.1948 20.432 24.9628 20.736 24.8668 20.976C24.8668 20.992 24.8588 21.008 24.8428 21.024C24.8428 21.04 24.8428 21.064 24.8428 21.096C24.8428 21.192 24.9388 21.248 25.1308 21.264ZM36.3101 21.552C35.7661 21.552 35.2701 21.44 34.8221 21.216C34.3901 21.008 34.1741 20.584 34.1741 19.944C34.1741 19.512 34.3341 19.024 34.6541 18.48C34.9901 17.92 35.4221 17.328 35.9501 16.704C36.4941 16.08 37.0781 15.456 37.7021 14.832C38.3421 14.208 38.9661 13.624 39.5741 13.08C39.4141 13.048 39.2621 13.016 39.1181 12.984C38.9901 12.952 38.8621 12.92 38.7341 12.888C38.0141 12.712 37.1501 12.504 36.1421 12.264C35.1501 12.008 34.0861 11.768 32.9501 11.544C31.8301 11.304 30.6701 11.104 29.4701 10.944C28.2701 10.768 27.1021 10.68 25.9661 10.68C24.4781 10.68 23.1261 10.872 21.9101 11.256C20.6941 11.64 19.7661 12.32 19.1261 13.296C19.0781 13.36 19.0301 13.416 18.9821 13.464C18.9341 13.512 18.8861 13.544 18.8381 13.56C18.8221 13.56 18.8141 13.568 18.8141 13.584C18.7981 13.584 18.7821 13.584 18.7661 13.584C18.6701 13.584 18.6061 13.528 18.5741 13.416C18.5581 13.384 18.5501 13.336 18.5501 13.272C18.5501 13.064 18.6061 12.896 18.7181 12.768C19.2301 12.016 19.8781 11.424 20.6621 10.992C21.4301 10.56 22.2941 10.256 23.2541 10.08C24.1981 9.888 25.1821 9.792 26.2061 9.792C27.2461 9.792 28.2941 9.864 29.3501 10.008C30.4061 10.136 31.4221 10.304 32.3981 10.512C33.3741 10.704 34.2701 10.912 35.0861 11.136C35.9181 11.344 36.6141 11.528 37.1741 11.688C37.5581 11.784 38.0221 11.896 38.5661 12.024C39.1101 12.152 39.7021 12.272 40.3421 12.384L41.7581 11.16C41.6941 10.984 41.7581 10.768 41.9501 10.512C42.1581 10.256 42.4461 10.048 42.8141 9.888C42.8461 9.872 42.9181 9.864 43.0301 9.864C43.1901 9.864 43.3741 9.888 43.5821 9.936C43.7901 9.984 43.9741 10.056 44.1341 10.152C44.2941 10.248 44.3741 10.368 44.3741 10.512C44.3741 10.576 44.3181 10.664 44.2061 10.776C44.0941 10.888 43.9661 10.992 43.8221 11.088C43.6941 11.184 43.6061 11.248 43.5581 11.28C43.3821 11.376 43.1341 11.544 42.8141 11.784C42.5101 12.008 42.1501 12.28 41.7341 12.6C42.8861 12.776 43.9821 12.864 45.0221 12.864C45.8221 12.864 46.5341 12.8 47.1581 12.672C47.7821 12.528 48.2781 12.288 48.6461 11.952C49.0141 11.616 49.1981 11.168 49.1981 10.608C49.1981 10.544 49.1981 10.488 49.1981 10.44C49.1981 10.376 49.1901 10.312 49.1741 10.248V10.224C49.1741 10.064 49.2621 9.984 49.4381 9.984C49.5661 9.984 49.6541 10.056 49.7021 10.2C49.7181 10.296 49.7261 10.392 49.7261 10.488C49.7421 10.584 49.7501 10.68 49.7501 10.776C49.7501 11.544 49.5261 12.152 49.0781 12.6C48.6301 13.032 48.0461 13.344 47.3261 13.536C46.6061 13.712 45.8301 13.8 44.9981 13.8C44.3101 13.8 43.6061 13.752 42.8861 13.656C42.1821 13.56 41.5021 13.456 40.8461 13.344C40.2061 13.872 39.5581 14.448 38.9021 15.072C38.2461 15.696 37.6381 16.312 37.0781 16.92C36.5181 17.528 36.0621 18.088 35.7101 18.6C35.3741 19.112 35.2061 19.528 35.2061 19.848C35.2061 20.472 35.7101 20.784 36.7181 20.784C37.4701 20.784 38.3501 20.6 39.3581 20.232C39.4541 20.2 39.5501 20.168 39.6461 20.136C39.7581 20.088 39.8701 20.04 39.9821 19.992C40.7181 19.672 41.4461 19.272 42.1661 18.792C42.8861 18.296 43.5421 17.8 44.1341 17.304C44.2141 17.224 44.2941 17.16 44.3741 17.112C44.4541 17.048 44.5261 16.992 44.5901 16.944C44.6701 16.88 44.7421 16.824 44.8061 16.776C44.8861 16.712 44.9741 16.64 45.0701 16.56C45.1661 16.528 45.2301 16.512 45.2621 16.512C45.3741 16.512 45.4301 16.568 45.4301 16.68C45.4301 16.792 45.3901 16.888 45.3101 16.968C45.2141 17.096 44.9821 17.336 44.6141 17.688C44.2461 18.024 43.7901 18.4 43.2461 18.816C42.7021 19.232 42.1101 19.632 41.4701 20.016C40.8461 20.4 40.2141 20.704 39.5741 20.928C39.2541 21.04 38.7821 21.168 38.1581 21.312C37.5341 21.472 36.9181 21.552 36.3101 21.552ZM52.3181 21.408C51.6301 21.408 51.0781 21.248 50.6621 20.928C50.2461 20.592 49.9501 20.16 49.7741 19.632C49.5981 19.104 49.5101 18.536 49.5101 17.928C49.5101 17.608 49.5341 17.288 49.5821 16.968C49.6301 16.632 49.6861 16.304 49.7501 15.984C49.3981 16.384 48.9981 16.816 48.5501 17.28C48.1181 17.744 47.6701 18.192 47.2061 18.624C46.7581 19.056 46.3421 19.44 45.9581 19.776C45.5741 20.112 45.2541 20.36 44.9981 20.52C45.0461 20.616 45.0701 20.704 45.0701 20.784C45.0701 20.928 45.0221 21.04 44.9261 21.12C44.8301 21.2 44.7181 21.24 44.5901 21.24C44.4461 21.24 44.2941 21.192 44.1341 21.096C43.9901 21.016 43.8701 20.872 43.7741 20.664C43.7101 20.536 43.6781 20.36 43.6781 20.136C43.6781 19.816 43.7501 19.448 43.8941 19.032C44.0541 18.616 44.2461 18.184 44.4701 17.736C44.7741 17.16 45.1101 16.568 45.4781 15.96C45.8621 15.336 46.2301 14.752 46.5821 14.208C46.5021 14.128 46.4461 14.056 46.4141 13.992C46.3821 13.912 46.3661 13.848 46.3661 13.8C46.3661 13.752 46.3821 13.696 46.4141 13.632C46.4461 13.552 46.4941 13.512 46.5581 13.512C46.6221 13.512 46.6861 13.544 46.7501 13.608C46.7661 13.656 46.8061 13.712 46.8701 13.776C47.0301 13.52 47.3421 13.032 47.8061 12.312C48.2861 11.576 48.8781 10.712 49.5821 9.72C50.2861 8.728 51.0621 7.712 51.9101 6.672C52.5821 5.84 53.2941 5.04 54.0461 4.272C54.7981 3.488 55.5661 2.792 56.3501 2.184C57.1341 1.56 57.9181 1.064 58.7021 0.696C59.4861 0.328 60.2461 0.144 60.9821 0.144C61.7981 0.144 62.4061 0.359999 62.8061 0.791998C63.2061 1.208 63.4061 1.752 63.4061 2.424C63.4061 3.352 63.2061 4.248 62.8061 5.112C62.4061 5.96 61.8701 6.776 61.1981 7.56C60.5421 8.328 59.8061 9.056 58.9901 9.744C58.1741 10.416 57.3501 11.04 56.5181 11.616C55.7341 12.16 54.8861 12.632 53.9741 13.032C53.0781 13.432 52.2061 13.768 51.3581 14.04C51.4221 14.104 51.4781 14.176 51.5261 14.256C51.5901 14.336 51.6541 14.424 51.7181 14.52C51.7501 14.584 51.7661 14.656 51.7661 14.736C51.7661 15.008 51.7181 15.208 51.6221 15.336C50.9501 16.376 50.6141 17.408 50.6141 18.432C50.6141 19.072 50.7741 19.608 51.0941 20.04C51.4141 20.472 51.9021 20.688 52.5581 20.688C53.2301 20.688 54.1101 20.416 55.1981 19.872C55.8861 19.52 56.5821 19.112 57.2861 18.648C58.0061 18.184 58.6541 17.72 59.2301 17.256C59.3101 17.176 59.3901 17.112 59.4701 17.064C59.5661 17.016 59.6461 16.96 59.7101 16.896L60.1901 16.512C60.2381 16.496 60.2941 16.488 60.3581 16.488C60.4861 16.488 60.5501 16.544 60.5501 16.656C60.5501 16.752 60.5101 16.84 60.4301 16.92C60.3341 17.048 60.1181 17.264 59.7821 17.568C59.4461 17.856 59.0301 18.192 58.5341 18.576C58.0541 18.96 57.5261 19.336 56.9501 19.704C56.3901 20.072 55.8301 20.392 55.2701 20.664C54.9501 20.824 54.5101 20.984 53.9501 21.144C53.4061 21.32 52.8621 21.408 52.3181 21.408ZM47.8061 14.016C48.1901 13.984 48.7101 13.888 49.3661 13.728C50.0221 13.552 50.7421 13.32 51.5261 13.032C52.3101 12.744 53.1021 12.408 53.9021 12.024C54.7021 11.64 55.4381 11.216 56.1101 10.752C56.5581 10.432 57.0621 10.04 57.6221 9.576C58.1981 9.112 58.7741 8.592 59.3501 8.016C59.9261 7.44 60.4541 6.84 60.9341 6.216C61.4301 5.576 61.8221 4.928 62.1101 4.272C62.4141 3.616 62.5661 2.968 62.5661 2.328C62.5661 1.88 62.4461 1.552 62.2061 1.344C61.9661 1.136 61.5581 1.032 60.9821 1.032C60.4861 1.032 59.8941 1.224 59.2061 1.608C58.5181 1.992 57.8061 2.488 57.0701 3.096C56.3341 3.688 55.6301 4.32 54.9581 4.992C54.3021 5.648 53.7501 6.248 53.3021 6.792C52.6141 7.64 51.9101 8.52 51.1901 9.432C50.4701 10.328 49.8061 11.184 49.1981 12C48.6061 12.8 48.1421 13.472 47.8061 14.016ZM44.8541 19.776C45.0461 19.648 45.3181 19.424 45.6701 19.104C46.0221 18.784 46.4141 18.416 46.8461 18C47.2781 17.584 47.7101 17.16 48.1421 16.728C48.5901 16.28 48.9901 15.864 49.3421 15.48C49.7101 15.08 49.9981 14.76 50.2061 14.52L50.2781 14.352C49.4461 14.544 48.7181 14.64 48.0941 14.64C47.9821 14.64 47.8701 14.64 47.7581 14.64C47.6461 14.624 47.5501 14.608 47.4701 14.592C47.0701 15.2 46.6701 15.848 46.2701 16.536C45.8701 17.208 45.5341 17.832 45.2621 18.408C44.9901 18.984 44.8541 19.44 44.8541 19.776ZM61.8758 21.312C61.5078 21.312 61.1558 21.272 60.8198 21.192C60.4838 21.112 60.1798 20.992 59.9078 20.832C59.2038 20.384 58.8518 19.792 58.8518 19.056C58.8518 18.48 59.0438 17.896 59.4278 17.304C59.8278 16.696 60.3398 16.12 60.9638 15.576C61.5878 15.032 62.2438 14.584 62.9318 14.232C63.3478 14.008 63.7638 13.848 64.1798 13.752C64.5958 13.656 64.9638 13.608 65.2838 13.608C65.8438 13.608 66.2118 13.72 66.3878 13.944C66.5798 14.152 66.6758 14.4 66.6758 14.688C66.6758 14.992 66.5798 15.288 66.3878 15.576C66.1958 15.848 65.9238 16.12 65.5718 16.392C64.9638 16.888 64.1318 17.328 63.0758 17.712C62.0358 18.096 60.9638 18.368 59.8598 18.528C59.6998 18.848 59.6198 19.144 59.6198 19.416C59.6518 19.864 59.8838 20.184 60.3158 20.376C60.7638 20.552 61.2598 20.64 61.8038 20.64C61.9958 20.64 62.1798 20.632 62.3558 20.616C62.5318 20.6 62.6998 20.576 62.8598 20.544C63.6598 20.384 64.4758 20.096 65.3078 19.68C66.1558 19.264 66.9718 18.784 67.7558 18.24C68.5398 17.696 69.2438 17.152 69.8678 16.608C69.9638 16.576 70.0278 16.56 70.0598 16.56C70.1718 16.56 70.2278 16.616 70.2278 16.728C70.2278 16.808 70.1958 16.888 70.1318 16.968C70.0198 17.16 69.7878 17.408 69.4358 17.712C69.0998 18.016 68.7158 18.328 68.2838 18.648C67.8518 18.952 67.4278 19.248 67.0118 19.536C66.6118 19.808 66.2758 20.016 66.0038 20.16C65.4278 20.48 64.7718 20.752 64.0358 20.976C63.2998 21.2 62.5798 21.312 61.8758 21.312ZM60.2678 17.856C60.7798 17.728 61.3718 17.568 62.0438 17.376C62.7158 17.168 63.3558 16.928 63.9638 16.656C64.5718 16.368 65.0278 16.056 65.3318 15.72C65.4598 15.592 65.5478 15.464 65.5958 15.336C65.6438 15.192 65.6678 15.072 65.6678 14.976C65.6678 14.896 65.6358 14.824 65.5718 14.76C65.5238 14.696 65.3638 14.664 65.0918 14.664C64.7078 14.664 64.2118 14.824 63.6038 15.144C62.9958 15.448 62.3878 15.848 61.7798 16.344C61.1878 16.824 60.6838 17.328 60.2678 17.856ZM70.2242 21.552C69.6802 21.552 69.1842 21.44 68.7362 21.216C68.3042 21.008 68.0882 20.584 68.0882 19.944C68.0882 19.512 68.2482 19.024 68.5682 18.48C68.9042 17.92 69.3362 17.328 69.8642 16.704C70.4082 16.08 70.9922 15.456 71.6162 14.832C72.2562 14.208 72.8802 13.624 73.4882 13.08C73.3282 13.048 73.1762 13.016 73.0322 12.984C72.9042 12.952 72.7762 12.92 72.6482 12.888C71.9282 12.712 71.0642 12.504 70.0562 12.264C69.0642 12.008 68.0002 11.768 66.8642 11.544C65.7442 11.304 64.5842 11.104 63.3842 10.944C62.1842 10.768 61.0162 10.68 59.8802 10.68C58.3922 10.68 57.0402 10.872 55.8242 11.256C54.6082 11.64 53.6802 12.32 53.0402 13.296C52.9922 13.36 52.9442 13.416 52.8962 13.464C52.8482 13.512 52.8002 13.544 52.7522 13.56C52.7362 13.56 52.7282 13.568 52.7282 13.584C52.7122 13.584 52.6962 13.584 52.6802 13.584C52.5842 13.584 52.5202 13.528 52.4882 13.416C52.4722 13.384 52.4642 13.336 52.4642 13.272C52.4642 13.064 52.5202 12.896 52.6322 12.768C53.1442 12.016 53.7922 11.424 54.5762 10.992C55.3442 10.56 56.2082 10.256 57.1682 10.08C58.1122 9.888 59.0962 9.792 60.1202 9.792C61.1602 9.792 62.2082 9.864 63.2642 10.008C64.3202 10.136 65.3362 10.304 66.3122 10.512C67.2882 10.704 68.1842 10.912 69.0002 11.136C69.8322 11.344 70.5282 11.528 71.0882 11.688C71.4722 11.784 71.9362 11.896 72.4802 12.024C73.0242 12.152 73.6162 12.272 74.2562 12.384L75.6722 11.16C75.6082 10.984 75.6722 10.768 75.8642 10.512C76.0722 10.256 76.3602 10.048 76.7282 9.888C76.7602 9.872 76.8322 9.864 76.9442 9.864C77.1042 9.864 77.2882 9.888 77.4962 9.936C77.7042 9.984 77.8882 10.056 78.0482 10.152C78.2082 10.248 78.2882 10.368 78.2882 10.512C78.2882 10.576 78.2322 10.664 78.1202 10.776C78.0082 10.888 77.8802 10.992 77.7362 11.088C77.6082 11.184 77.5202 11.248 77.4722 11.28C77.2962 11.376 77.0482 11.544 76.7282 11.784C76.4242 12.008 76.0642 12.28 75.6482 12.6C76.8002 12.776 77.8962 12.864 78.9362 12.864C79.7362 12.864 80.4482 12.8 81.0722 12.672C81.6962 12.528 82.1922 12.288 82.5602 11.952C82.9282 11.616 83.1122 11.168 83.1122 10.608C83.1122 10.544 83.1122 10.488 83.1122 10.44C83.1122 10.376 83.1042 10.312 83.0882 10.248V10.224C83.0882 10.064 83.1762 9.984 83.3522 9.984C83.4802 9.984 83.5682 10.056 83.6162 10.2C83.6322 10.296 83.6402 10.392 83.6402 10.488C83.6562 10.584 83.6642 10.68 83.6642 10.776C83.6642 11.544 83.4402 12.152 82.9922 12.6C82.5442 13.032 81.9602 13.344 81.2402 13.536C80.5202 13.712 79.7442 13.8 78.9122 13.8C78.2242 13.8 77.5202 13.752 76.8002 13.656C76.0962 13.56 75.4162 13.456 74.7602 13.344C74.1202 13.872 73.4722 14.448 72.8162 15.072C72.1602 15.696 71.5522 16.312 70.9922 16.92C70.4322 17.528 69.9762 18.088 69.6242 18.6C69.2882 19.112 69.1202 19.528 69.1202 19.848C69.1202 20.472 69.6242 20.784 70.6322 20.784C71.3842 20.784 72.2642 20.6 73.2722 20.232C73.3682 20.2 73.4642 20.168 73.5602 20.136C73.6722 20.088 73.7842 20.04 73.8962 19.992C74.6322 19.672 75.3602 19.272 76.0802 18.792C76.8002 18.296 77.4562 17.8 78.0482 17.304C78.1282 17.224 78.2082 17.16 78.2882 17.112C78.3682 17.048 78.4402 16.992 78.5042 16.944C78.5842 16.88 78.6562 16.824 78.7202 16.776C78.8002 16.712 78.8882 16.64 78.9842 16.56C79.0802 16.528 79.1442 16.512 79.1762 16.512C79.2882 16.512 79.3442 16.568 79.3442 16.68C79.3442 16.792 79.3042 16.888 79.2242 16.968C79.1282 17.096 78.8962 17.336 78.5282 17.688C78.1602 18.024 77.7042 18.4 77.1602 18.816C76.6162 19.232 76.0242 19.632 75.3842 20.016C74.7602 20.4 74.1282 20.704 73.4882 20.928C73.1682 21.04 72.6962 21.168 72.0722 21.312C71.4482 21.472 70.8322 21.552 70.2242 21.552ZM82.8242 13.08C82.6322 13.08 82.4962 13.032 82.4162 12.936C82.3362 12.824 82.2962 12.688 82.2962 12.528C82.2962 12.352 82.3282 12.2 82.3922 12.072C82.4562 11.944 82.6242 11.832 82.8962 11.736C83.1842 11.64 83.4882 11.568 83.8082 11.52C84.1442 11.472 84.4002 11.448 84.5762 11.448C84.7682 11.448 84.8642 11.488 84.8642 11.568C84.8642 11.632 84.8242 11.688 84.7442 11.736C84.7122 11.752 84.6642 11.776 84.6002 11.808C84.5522 11.84 84.4882 11.872 84.4082 11.904C84.2962 11.952 84.1682 12.016 84.0242 12.096C83.8962 12.16 83.8162 12.24 83.7842 12.336C83.6882 12.544 83.5522 12.72 83.3762 12.864C83.2002 13.008 83.0162 13.08 82.8242 13.08ZM78.8402 21.192C78.3922 21.192 77.9842 21.104 77.6162 20.928C77.2642 20.752 77.0882 20.416 77.0882 19.92C77.0882 19.44 77.2002 18.976 77.4242 18.528C77.6482 18.08 77.9282 17.656 78.2642 17.256C78.6162 16.856 78.9522 16.504 79.2722 16.2C79.5442 15.96 79.7602 15.768 79.9202 15.624C79.9042 15.608 79.8962 15.576 79.8962 15.528C79.8962 15.4 79.9522 15.272 80.0642 15.144C80.2402 14.888 80.5282 14.672 80.9282 14.496C81.0242 14.464 81.1202 14.448 81.2162 14.448C81.4242 14.448 81.6322 14.496 81.8402 14.592C82.0482 14.672 82.1522 14.808 82.1522 15C82.1522 15.112 82.1122 15.216 82.0322 15.312C81.9522 15.408 81.8802 15.48 81.8162 15.528C81.6882 15.624 81.4882 15.792 81.2162 16.032C80.9602 16.256 80.6802 16.52 80.3762 16.824C80.0722 17.112 79.7762 17.4 79.4882 17.688C79.2162 17.96 79.0082 18.192 78.8642 18.384C78.3042 19.104 78.0242 19.648 78.0242 20.016C78.0242 20.176 78.0882 20.312 78.2162 20.424C78.3602 20.52 78.6082 20.568 78.9602 20.568C79.5202 20.568 80.0722 20.48 80.6162 20.304C81.1762 20.112 81.6882 19.896 82.1522 19.656C82.5362 19.464 82.8962 19.248 83.2322 19.008C83.5842 18.768 83.9282 18.52 84.2642 18.264C84.6002 17.992 84.9362 17.712 85.2722 17.424C85.6242 17.136 85.9762 16.848 86.3282 16.56C86.3762 16.544 86.4322 16.536 86.4962 16.536C86.6242 16.536 86.6882 16.592 86.6882 16.704C86.6882 16.8 86.6482 16.888 86.5682 16.968C86.4722 17.096 86.2722 17.304 85.9682 17.592C85.6642 17.88 85.2882 18.208 84.8402 18.576C84.4082 18.944 83.9202 19.304 83.3762 19.656C82.8322 20.008 82.2722 20.312 81.6962 20.568C81.3922 20.696 80.9682 20.832 80.4242 20.976C79.8802 21.12 79.3522 21.192 78.8402 21.192ZM88.4773 21.312C88.1093 21.312 87.7573 21.272 87.4213 21.192C87.0853 21.112 86.7813 20.992 86.5093 20.832C85.8053 20.384 85.4533 19.792 85.4533 19.056C85.4533 18.48 85.6453 17.896 86.0293 17.304C86.4293 16.696 86.9413 16.12 87.5653 15.576C88.1893 15.032 88.8453 14.584 89.5333 14.232C89.9653 14.008 90.3893 13.848 90.8053 13.752C91.2213 13.656 91.5973 13.608 91.9333 13.608C92.3013 13.608 92.6293 13.664 92.9173 13.776C93.2053 13.888 93.3653 14.056 93.3973 14.28C93.4613 14.744 93.3333 15.176 93.0133 15.576C92.6933 15.96 92.3093 16.304 91.8613 16.608C91.4133 16.912 91.0213 17.16 90.6853 17.352C90.6373 17.368 90.5893 17.392 90.5413 17.424C90.5093 17.44 90.4773 17.448 90.4453 17.448C90.3333 17.448 90.2693 17.416 90.2533 17.352C90.2373 17.272 90.2373 17.2 90.2533 17.136C90.3173 16.928 90.5173 16.736 90.8533 16.56C91.0613 16.448 91.2773 16.304 91.5013 16.128C91.7253 15.936 91.9173 15.736 92.0773 15.528C92.2373 15.304 92.3173 15.12 92.3173 14.976C92.3173 14.896 92.2773 14.824 92.1973 14.76C92.1173 14.696 91.9413 14.664 91.6693 14.664C91.3493 14.664 90.9573 14.768 90.4933 14.976C90.0293 15.184 89.5493 15.464 89.0533 15.816C88.5573 16.152 88.0933 16.528 87.6613 16.944C87.2453 17.36 86.9013 17.776 86.6293 18.192C86.3573 18.608 86.2213 18.992 86.2213 19.344C86.2213 19.808 86.4453 20.144 86.8933 20.352C87.3413 20.544 87.8453 20.64 88.4053 20.64C88.5973 20.64 88.7813 20.632 88.9573 20.616C89.1333 20.6 89.3013 20.576 89.4613 20.544C90.2613 20.384 91.0773 20.096 91.9093 19.68C92.7573 19.264 93.5733 18.784 94.3573 18.24C95.1413 17.696 95.8453 17.152 96.4693 16.608C96.5653 16.576 96.6293 16.56 96.6613 16.56C96.7733 16.56 96.8293 16.616 96.8293 16.728C96.8293 16.808 96.7973 16.888 96.7333 16.968C96.6213 17.16 96.3893 17.408 96.0373 17.712C95.7013 18.016 95.3173 18.328 94.8853 18.648C94.4533 18.952 94.0293 19.248 93.6133 19.536C93.2133 19.808 92.8773 20.016 92.6053 20.16C92.0293 20.48 91.3733 20.752 90.6373 20.976C89.9013 21.2 89.1813 21.312 88.4773 21.312ZM103.704 21.96C103.512 21.928 103.328 21.856 103.152 21.744C102.992 21.648 102.912 21.496 102.912 21.288C102.912 20.936 103.104 20.568 103.488 20.184C103.872 19.784 104.352 19.4 104.928 19.032C105.504 18.664 106.072 18.36 106.632 18.12C106.28 17.752 106 17.4 105.792 17.064C105.584 16.712 105.48 16.36 105.48 16.008C105.48 15.528 105.704 15.072 106.152 14.64C106.6 14.192 107.312 13.752 108.288 13.32C108.752 13.112 109.168 12.968 109.536 12.888C109.92 12.808 110.256 12.768 110.544 12.768C110.912 12.768 111.216 12.816 111.456 12.912C111.696 13.008 111.872 13.12 111.984 13.248C112.24 13.552 112.368 13.856 112.368 14.16C112.368 14.544 112.2 14.872 111.864 15.144C111.528 15.416 111.216 15.64 110.928 15.816C110.88 15.832 110.832 15.856 110.784 15.888C110.736 15.92 110.696 15.952 110.664 15.984C110.568 16.048 110.512 16.088 110.496 16.104C110.352 16.232 110.208 16.264 110.064 16.2C109.984 16.152 109.944 16.088 109.944 16.008C109.944 15.928 109.984 15.864 110.064 15.816C110.24 15.736 110.44 15.584 110.664 15.36C110.904 15.12 111.112 14.872 111.288 14.616C111.48 14.344 111.576 14.112 111.576 13.92C111.576 13.824 111.552 13.744 111.504 13.68C111.408 13.584 111.216 13.536 110.928 13.536C110.576 13.536 110.16 13.616 109.68 13.776C109.216 13.936 108.76 14.152 108.312 14.424C107.88 14.68 107.52 14.968 107.232 15.288C106.944 15.592 106.8 15.896 106.8 16.2C106.8 16.472 106.888 16.736 107.064 16.992C107.256 17.232 107.464 17.464 107.688 17.688C108.136 17.496 108.664 17.336 109.272 17.208C109.896 17.064 110.536 16.952 111.192 16.872C111.864 16.792 112.512 16.736 113.136 16.704C113.76 16.672 114.296 16.656 114.744 16.656C115.016 16.656 115.248 16.656 115.44 16.656C115.632 16.656 115.784 16.672 115.896 16.704C116.04 16.736 116.112 16.8 116.112 16.896C116.112 16.96 116.08 17.016 116.016 17.064C115.968 17.112 115.912 17.136 115.848 17.136C115.736 17.136 115.616 17.128 115.488 17.112C115.376 17.096 115.24 17.088 115.08 17.088C114.584 17.088 113.992 17.128 113.304 17.208C112.616 17.272 111.92 17.36 111.216 17.472C110.528 17.568 109.904 17.68 109.344 17.808C108.784 17.936 108.384 18.064 108.144 18.192C108.416 18.56 108.552 18.952 108.552 19.368C108.552 20.104 108.192 20.68 107.472 21.096C106.992 21.4 106.448 21.624 105.84 21.768C105.248 21.928 104.72 22.008 104.256 22.008C104.144 22.008 104.04 22 103.944 21.984C103.864 21.984 103.784 21.976 103.704 21.96ZM104.232 21.264C104.408 21.264 104.728 21.192 105.192 21.048C105.672 20.92 106.112 20.728 106.512 20.472C107.056 20.136 107.328 19.752 107.328 19.32C107.328 19.048 107.2 18.76 106.944 18.456C106.64 18.568 106.264 18.784 105.816 19.104C105.384 19.408 105 19.728 104.664 20.064C104.296 20.432 104.064 20.736 103.968 20.976C103.968 20.992 103.96 21.008 103.944 21.024C103.944 21.04 103.944 21.064 103.944 21.096C103.944 21.192 104.04 21.248 104.232 21.264ZM115.412 21.552C114.868 21.552 114.372 21.44 113.924 21.216C113.492 21.008 113.276 20.584 113.276 19.944C113.276 19.512 113.436 19.024 113.756 18.48C114.092 17.92 114.524 17.328 115.052 16.704C115.596 16.08 116.18 15.456 116.804 14.832C117.444 14.208 118.068 13.624 118.676 13.08C118.516 13.048 118.364 13.016 118.22 12.984C118.092 12.952 117.964 12.92 117.836 12.888C117.116 12.712 116.252 12.504 115.244 12.264C114.252 12.008 113.188 11.768 112.052 11.544C110.932 11.304 109.772 11.104 108.572 10.944C107.372 10.768 106.204 10.68 105.068 10.68C103.58 10.68 102.228 10.872 101.012 11.256C99.7957 11.64 98.8677 12.32 98.2277 13.296C98.1797 13.36 98.1317 13.416 98.0837 13.464C98.0357 13.512 97.9877 13.544 97.9397 13.56C97.9237 13.56 97.9157 13.568 97.9157 13.584C97.8997 13.584 97.8837 13.584 97.8677 13.584C97.7717 13.584 97.7077 13.528 97.6757 13.416C97.6597 13.384 97.6517 13.336 97.6517 13.272C97.6517 13.064 97.7077 12.896 97.8197 12.768C98.3317 12.016 98.9797 11.424 99.7637 10.992C100.532 10.56 101.396 10.256 102.356 10.08C103.3 9.888 104.284 9.792 105.308 9.792C106.348 9.792 107.396 9.864 108.452 10.008C109.508 10.136 110.524 10.304 111.5 10.512C112.476 10.704 113.372 10.912 114.188 11.136C115.02 11.344 115.716 11.528 116.276 11.688C116.66 11.784 117.124 11.896 117.668 12.024C118.212 12.152 118.804 12.272 119.444 12.384L120.86 11.16C120.796 10.984 120.86 10.768 121.052 10.512C121.26 10.256 121.548 10.048 121.916 9.888C121.948 9.872 122.02 9.864 122.132 9.864C122.292 9.864 122.476 9.888 122.684 9.936C122.892 9.984 123.076 10.056 123.236 10.152C123.396 10.248 123.476 10.368 123.476 10.512C123.476 10.576 123.42 10.664 123.308 10.776C123.196 10.888 123.068 10.992 122.924 11.088C122.796 11.184 122.708 11.248 122.66 11.28C122.484 11.376 122.236 11.544 121.916 11.784C121.612 12.008 121.252 12.28 120.836 12.6C121.988 12.776 123.084 12.864 124.124 12.864C124.924 12.864 125.636 12.8 126.26 12.672C126.884 12.528 127.38 12.288 127.748 11.952C128.116 11.616 128.3 11.168 128.3 10.608C128.3 10.544 128.3 10.488 128.3 10.44C128.3 10.376 128.292 10.312 128.276 10.248V10.224C128.276 10.064 128.364 9.984 128.54 9.984C128.668 9.984 128.756 10.056 128.804 10.2C128.82 10.296 128.828 10.392 128.828 10.488C128.844 10.584 128.852 10.68 128.852 10.776C128.852 11.544 128.628 12.152 128.18 12.6C127.732 13.032 127.148 13.344 126.428 13.536C125.708 13.712 124.932 13.8 124.1 13.8C123.412 13.8 122.708 13.752 121.988 13.656C121.284 13.56 120.604 13.456 119.948 13.344C119.308 13.872 118.66 14.448 118.004 15.072C117.348 15.696 116.74 16.312 116.18 16.92C115.62 17.528 115.164 18.088 114.812 18.6C114.476 19.112 114.308 19.528 114.308 19.848C114.308 20.472 114.812 20.784 115.82 20.784C116.572 20.784 117.452 20.6 118.46 20.232C118.556 20.2 118.652 20.168 118.748 20.136C118.86 20.088 118.972 20.04 119.084 19.992C119.82 19.672 120.548 19.272 121.268 18.792C121.988 18.296 122.644 17.8 123.236 17.304C123.316 17.224 123.396 17.16 123.476 17.112C123.556 17.048 123.628 16.992 123.692 16.944C123.772 16.88 123.844 16.824 123.908 16.776C123.988 16.712 124.076 16.64 124.172 16.56C124.268 16.528 124.332 16.512 124.364 16.512C124.476 16.512 124.532 16.568 124.532 16.68C124.532 16.792 124.492 16.888 124.412 16.968C124.316 17.096 124.084 17.336 123.716 17.688C123.348 18.024 122.892 18.4 122.348 18.816C121.804 19.232 121.212 19.632 120.572 20.016C119.948 20.4 119.316 20.704 118.676 20.928C118.356 21.04 117.884 21.168 117.26 21.312C116.636 21.472 116.02 21.552 115.412 21.552ZM130.292 21.264C129.524 21.264 128.996 21.096 128.708 20.76C128.42 20.424 128.276 20.008 128.276 19.512C128.276 19.272 128.308 19.024 128.372 18.768C128.436 18.496 128.508 18.24 128.588 18C128.332 18.272 128.02 18.584 127.652 18.936C127.3 19.288 126.908 19.632 126.476 19.968C126.06 20.304 125.644 20.584 125.228 20.808C124.812 21.016 124.412 21.12 124.028 21.12C123.548 21.12 123.156 20.912 122.852 20.496C122.66 20.208 122.564 19.912 122.564 19.608C122.564 19.24 122.66 18.888 122.852 18.552C123.06 18.2 123.292 17.864 123.548 17.544C123.82 17.208 124.052 16.904 124.244 16.632C124.612 16.088 124.924 15.568 125.18 15.072C125.436 14.576 125.564 14.176 125.564 13.872C125.564 13.696 125.508 13.56 125.396 13.464C125.204 13.32 125.108 13.152 125.108 12.96C125.108 12.832 125.18 12.768 125.324 12.768C125.42 12.768 125.54 12.816 125.684 12.912C125.796 12.976 125.916 13.064 126.044 13.176C126.172 13.288 126.292 13.416 126.404 13.56C126.468 13.624 126.524 13.688 126.572 13.752C126.62 13.816 126.668 13.88 126.716 13.944C126.748 14.024 126.78 14.112 126.812 14.208C126.844 14.288 126.86 14.384 126.86 14.496C126.86 14.752 126.772 15.032 126.596 15.336C126.42 15.64 126.196 15.968 125.924 16.32C125.668 16.672 125.396 17.032 125.108 17.4C124.98 17.56 124.78 17.832 124.508 18.216C124.252 18.584 124.02 18.952 123.812 19.32C123.716 19.512 123.628 19.688 123.548 19.848C123.484 20.008 123.452 20.152 123.452 20.28C123.452 20.488 123.572 20.592 123.812 20.592C124.036 20.592 124.308 20.504 124.628 20.328C124.964 20.136 125.284 19.928 125.588 19.704C125.892 19.464 126.116 19.288 126.26 19.176C126.772 18.744 127.3 18.296 127.844 17.832C128.404 17.352 128.94 16.896 129.452 16.464C129.532 16.4 129.636 16.368 129.764 16.368C129.988 16.368 130.164 16.432 130.292 16.56C130.356 16.608 130.388 16.696 130.388 16.824C130.388 17.08 130.26 17.448 130.004 17.928C129.94 18.072 129.868 18.224 129.788 18.384C129.708 18.528 129.636 18.68 129.572 18.84C129.508 19 129.444 19.152 129.38 19.296C129.332 19.44 129.3 19.584 129.284 19.728C129.268 19.776 129.26 19.824 129.26 19.872C129.26 19.92 129.26 19.968 129.26 20.016C129.26 20.272 129.332 20.448 129.476 20.544C129.62 20.624 129.796 20.664 130.004 20.664C130.308 20.664 130.62 20.616 130.94 20.52C131.276 20.408 131.548 20.32 131.756 20.256C132.572 19.936 133.396 19.504 134.228 18.96C135.076 18.416 135.836 17.872 136.508 17.328C136.668 17.184 136.82 17.056 136.964 16.944C137.124 16.832 137.284 16.696 137.444 16.536C137.556 16.424 137.644 16.36 137.708 16.344H137.756C137.884 16.344 137.924 16.416 137.876 16.56C137.844 16.688 137.78 16.816 137.684 16.944C137.54 17.184 137.276 17.488 136.892 17.856C136.508 18.208 136.044 18.584 135.5 18.984C134.972 19.368 134.404 19.736 133.796 20.088C133.188 20.44 132.58 20.728 131.972 20.952C131.364 21.16 130.804 21.264 130.292 21.264ZM143.412 24.408C142.66 24.408 142.124 24.128 141.804 23.568C141.5 23.008 141.348 22.336 141.348 21.552C141.348 20.992 141.412 20.408 141.54 19.8C141.668 19.176 141.836 18.568 142.044 17.976C141.772 18.264 141.436 18.592 141.036 18.96C140.636 19.312 140.196 19.664 139.716 20.016C139.252 20.352 138.78 20.632 138.3 20.856C137.836 21.08 137.396 21.192 136.98 21.192C136.484 21.192 136.068 21.008 135.732 20.64C135.508 20.4 135.396 20.088 135.396 19.704C135.396 19.24 135.556 18.728 135.876 18.168C136.196 17.608 136.612 17.056 137.124 16.512C137.636 15.968 138.188 15.488 138.78 15.072C139.372 14.656 139.94 14.36 140.484 14.184C141.044 13.992 141.508 13.896 141.876 13.896C142.292 13.896 142.612 13.976 142.836 14.136C143.076 14.28 143.26 14.456 143.388 14.664C143.516 14.872 143.612 15.064 143.676 15.24C143.98 14.808 144.292 14.352 144.612 13.872C144.932 13.392 145.268 12.912 145.62 12.432C146.132 11.696 146.676 10.984 147.252 10.296C147.828 9.608 148.412 8.992 149.004 8.448C149.276 8.208 149.532 8.088 149.772 8.088C149.9 8.088 150.02 8.128 150.132 8.208C150.372 8.384 150.588 8.592 150.78 8.832C150.972 9.056 151.068 9.272 151.068 9.48C151.068 9.544 151.044 9.616 150.996 9.696C150.9 9.84 150.812 9.912 150.732 9.912C150.668 9.896 150.62 9.872 150.588 9.84C150.572 9.808 150.556 9.768 150.54 9.72C150.524 9.656 150.508 9.6 150.492 9.552C150.476 9.424 150.404 9.36 150.276 9.36C150.132 9.36 149.964 9.432 149.772 9.576C149.58 9.704 149.452 9.792 149.388 9.84C149.052 10.112 148.66 10.496 148.212 10.992C147.764 11.488 147.316 12.024 146.868 12.6C146.42 13.176 146.02 13.72 145.668 14.232C144.82 15.448 144.148 16.576 143.652 17.616C143.156 18.656 142.796 19.768 142.572 20.952C142.54 21.16 142.508 21.36 142.476 21.552C142.46 21.744 142.452 21.928 142.452 22.104C142.452 22.6 142.54 22.992 142.716 23.28C142.892 23.568 143.164 23.712 143.532 23.712C143.74 23.712 143.964 23.68 144.204 23.616C144.476 23.52 144.772 23.352 145.092 23.112C145.412 22.888 145.724 22.64 146.028 22.368C146.348 22.096 146.612 21.84 146.82 21.6C146.868 21.552 146.924 21.528 146.988 21.528C147.068 21.528 147.116 21.56 147.132 21.624C147.18 21.736 147.18 21.832 147.132 21.912C147.116 21.944 147.084 21.992 147.036 22.056C146.988 22.136 146.932 22.216 146.868 22.296C146.596 22.712 146.268 23.088 145.884 23.424C145.5 23.76 145.068 24.016 144.588 24.192C144.156 24.336 143.764 24.408 143.412 24.408ZM136.524 19.848C136.524 20.104 136.572 20.28 136.668 20.376C136.78 20.456 136.916 20.496 137.076 20.496C137.332 20.496 137.62 20.424 137.94 20.28C138.26 20.12 138.564 19.944 138.852 19.752C139.14 19.544 139.348 19.384 139.476 19.272C139.972 18.856 140.532 18.392 141.156 17.88C141.796 17.368 142.364 16.888 142.86 16.44C142.94 16.312 143.028 16.184 143.124 16.056C143.22 15.928 143.316 15.792 143.412 15.648C143.396 15.648 143.38 15.656 143.364 15.672C143.348 15.672 143.332 15.672 143.316 15.672C143.156 15.672 143.076 15.592 143.076 15.432C143.076 15.416 143.036 15.336 142.956 15.192C142.892 15.048 142.66 14.976 142.26 14.976C141.892 14.976 141.46 15.08 140.964 15.288C140.484 15.496 139.996 15.776 139.5 16.128C139.004 16.464 138.54 16.84 138.108 17.256C137.676 17.672 137.316 18.088 137.028 18.504C136.756 18.904 136.596 19.264 136.548 19.584C136.532 19.632 136.524 19.68 136.524 19.728C136.524 19.776 136.524 19.816 136.524 19.848ZM152.199 13.08C152.007 13.08 151.871 13.032 151.791 12.936C151.711 12.824 151.671 12.688 151.671 12.528C151.671 12.352 151.703 12.2 151.767 12.072C151.831 11.944 151.999 11.832 152.271 11.736C152.559 11.64 152.863 11.568 153.183 11.52C153.519 11.472 153.775 11.448 153.951 11.448C154.143 11.448 154.239 11.488 154.239 11.568C154.239 11.632 154.199 11.688 154.119 11.736C154.087 11.752 154.039 11.776 153.975 11.808C153.927 11.84 153.863 11.872 153.783 11.904C153.671 11.952 153.543 12.016 153.399 12.096C153.271 12.16 153.191 12.24 153.159 12.336C153.063 12.544 152.927 12.72 152.751 12.864C152.575 13.008 152.391 13.08 152.199 13.08ZM148.215 21.192C147.767 21.192 147.359 21.104 146.991 20.928C146.639 20.752 146.463 20.416 146.463 19.92C146.463 19.44 146.575 18.976 146.799 18.528C147.023 18.08 147.303 17.656 147.639 17.256C147.991 16.856 148.327 16.504 148.647 16.2C148.919 15.96 149.135 15.768 149.295 15.624C149.279 15.608 149.271 15.576 149.271 15.528C149.271 15.4 149.327 15.272 149.439 15.144C149.615 14.888 149.903 14.672 150.303 14.496C150.399 14.464 150.495 14.448 150.591 14.448C150.799 14.448 151.007 14.496 151.215 14.592C151.423 14.672 151.527 14.808 151.527 15C151.527 15.112 151.487 15.216 151.407 15.312C151.327 15.408 151.255 15.48 151.191 15.528C151.063 15.624 150.863 15.792 150.591 16.032C150.335 16.256 150.055 16.52 149.751 16.824C149.447 17.112 149.151 17.4 148.863 17.688C148.591 17.96 148.383 18.192 148.239 18.384C147.679 19.104 147.399 19.648 147.399 20.016C147.399 20.176 147.463 20.312 147.591 20.424C147.735 20.52 147.983 20.568 148.335 20.568C148.895 20.568 149.447 20.48 149.991 20.304C150.551 20.112 151.063 19.896 151.527 19.656C151.911 19.464 152.271 19.248 152.607 19.008C152.959 18.768 153.303 18.52 153.639 18.264C153.975 17.992 154.311 17.712 154.647 17.424C154.999 17.136 155.351 16.848 155.703 16.56C155.751 16.544 155.807 16.536 155.871 16.536C155.999 16.536 156.063 16.592 156.063 16.704C156.063 16.8 156.023 16.888 155.943 16.968C155.847 17.096 155.647 17.304 155.343 17.592C155.039 17.88 154.663 18.208 154.215 18.576C153.783 18.944 153.295 19.304 152.751 19.656C152.207 20.008 151.647 20.312 151.071 20.568C150.767 20.696 150.343 20.832 149.799 20.976C149.255 21.12 148.727 21.192 148.215 21.192ZM155.428 21.432C154.836 21.432 154.404 21.272 154.132 20.952C153.86 20.632 153.724 20.272 153.724 19.872C153.724 19.744 153.732 19.624 153.748 19.512C153.78 19.384 153.812 19.256 153.844 19.128C153.956 18.808 154.156 18.416 154.444 17.952C154.748 17.488 155.084 17.048 155.452 16.632C155.82 16.2 156.172 15.888 156.508 15.696C156.348 15.52 156.268 15.304 156.268 15.048C156.268 14.472 156.716 14.048 157.612 13.776C157.836 13.696 158.076 13.648 158.332 13.632C158.604 13.6 158.884 13.584 159.172 13.584C159.54 13.584 159.9 13.608 160.252 13.656C160.764 13.736 161.212 13.96 161.596 14.328C161.98 14.68 162.204 15.112 162.268 15.624C162.3 15.8 162.3 15.976 162.268 16.152C162.524 16.168 162.772 16.176 163.012 16.176C163.268 16.16 163.5 16.152 163.708 16.152C164.188 16.152 164.676 16.12 165.172 16.056C165.684 15.976 166.148 15.888 166.564 15.792C166.996 15.68 167.316 15.568 167.524 15.456C167.652 15.408 167.748 15.384 167.812 15.384C167.94 15.384 168.02 15.432 168.052 15.528C168.052 15.688 167.9 15.84 167.596 15.984C167.244 16.144 166.708 16.304 165.988 16.464C165.268 16.624 164.508 16.72 163.708 16.752C163.516 16.768 163.284 16.784 163.012 16.8C162.756 16.8 162.468 16.8 162.148 16.8C161.972 17.44 161.628 18.04 161.116 18.6C160.62 19.16 160.036 19.656 159.364 20.088C158.692 20.504 158.004 20.832 157.3 21.072C156.612 21.312 155.988 21.432 155.428 21.432ZM161.404 16.104C161.484 15.864 161.524 15.656 161.524 15.48C161.524 15.192 161.404 14.944 161.164 14.736C160.94 14.528 160.508 14.424 159.868 14.424C159.212 14.424 158.66 14.52 158.212 14.712C157.78 14.888 157.564 15.048 157.564 15.192C157.564 15.224 157.596 15.272 157.66 15.336C157.724 15.4 157.852 15.464 158.044 15.528C158.556 15.688 159.1 15.816 159.676 15.912C160.252 16.008 160.828 16.072 161.404 16.104ZM155.884 20.736C156.188 20.672 156.564 20.528 157.012 20.304C157.476 20.08 157.956 19.8 158.452 19.464C158.964 19.112 159.436 18.728 159.868 18.312C160.316 17.912 160.724 17.4 161.092 16.776C160.5 16.776 159.916 16.768 159.34 16.752C158.78 16.736 158.276 16.624 157.828 16.416C157.636 16.432 157.364 16.584 157.012 16.872C156.66 17.144 156.308 17.488 155.956 17.904C155.604 18.32 155.3 18.744 155.044 19.176C154.804 19.592 154.684 19.952 154.684 20.256C154.684 20.4 154.732 20.528 154.828 20.64C154.94 20.736 155.132 20.784 155.404 20.784C155.468 20.784 155.54 20.784 155.62 20.784C155.7 20.768 155.788 20.752 155.884 20.736Z" fill="black"/>
</svg>
